<svg aria-hidden="true" style="position: absolute; width: 0; height: 0; overflow: hidden;" version="1.1" xmlns="http://www.w3.org/2000/svg" xmlns:xlink="http://www.w3.org/1999/xlink">
<defs>
<symbol id="icon-line-logo" viewBox="0 0 32 32">
<title>line-logo</title>
<path fill="#fff" style="fill: var(--color1, #fff)" d="M31.926 12.448l0-0-0.010-0.082c-0-0.003-0-0.005-0.001-0.008l0 0-0.037-0.308-0.026-0.213-0.008-0.064-0.016 0.002c-0.39-2.22-1.463-4.327-3.123-6.125-1.653-1.79-3.8-3.204-6.21-4.088-2.065-0.757-4.256-1.141-6.511-1.141-3.045 0-6.003 0.716-8.553 2.071-4.917 2.613-7.817 7.415-7.389 12.235 0.222 2.494 1.199 4.868 2.826 6.866 1.531 1.88 3.602 3.398 5.99 4.388 1.468 0.609 2.919 0.896 4.456 1.2l0.18 0.036c0.423 0.084 0.537 0.199 0.566 0.244 0.054 0.085 0.026 0.251 0.004 0.343-0.020 0.085-0.041 0.169-0.062 0.254-0.165 0.673-0.336 1.369-0.202 2.136 0.154 0.882 0.705 1.388 1.511 1.388h0c0.867 0 1.854-0.582 2.507-0.966l0.087-0.051c1.558-0.915 3.026-1.947 4.13-2.744 2.417-1.744 5.157-3.72 7.21-6.277 2.068-2.575 3.042-5.885 2.68-9.093zM9.965 17.327h-2.761c-0.417 0-0.755-0.338-0.755-0.755v0-5.795c0-0.417 0.338-0.755 0.755-0.755s0.755 0.338 0.755 0.755v0 5.039h2.005c0 0 0 0 0 0 0.417 0 0.755 0.338 0.755 0.755s-0.338 0.755-0.755 0.755v0zM12.845 16.551c0 0.417-0.338 0.755-0.755 0.755s-0.755-0.338-0.755-0.755v0-5.795c0-0.417 0.338-0.755 0.755-0.755s0.755 0.338 0.755 0.755v0 5.795zM19.673 16.551c0 0 0 0 0 0 0 0.417-0.338 0.755-0.755 0.755-0.25 0-0.472-0.122-0.61-0.31l-0.001-0.002-2.72-3.747v3.303c0 0.417-0.338 0.755-0.755 0.755s-0.755-0.338-0.755-0.755v0-5.629c0-0 0-0 0-0 0-0.417 0.338-0.755 0.755-0.755 0.25 0 0.472 0.122 0.61 0.31l0.001 0.002 2.72 3.746v-3.469c0-0.417 0.338-0.755 0.755-0.755s0.755 0.338 0.755 0.755v0 5.795zM25.178 17.188h-3.739c-0.417 0-0.755-0.338-0.755-0.755v0-5.795c0-0.417 0.338-0.755 0.755-0.755v0h3.623c0.417 0 0.755 0.338 0.755 0.755s-0.338 0.755-0.755 0.755v0h-2.867v1.387h2.327c0.417 0 0.755 0.338 0.755 0.755s-0.338 0.755-0.755 0.755v0h-2.327v1.386h2.983c0.417 0 0.755 0.338 0.755 0.755s-0.338 0.755-0.755 0.755v0z"></path>
</symbol>
<symbol id="icon-nodejs" viewBox="0 0 32 32">
<title>nodejs</title>
<path fill="#fff" style="fill: var(--color1, #fff)" d="M15.995 30c-0.384-0.001-0.743-0.107-1.049-0.293l0.009 0.005-3.312-2.027c-0.495-0.285-0.251-0.388-0.090-0.446 0.66-0.236 0.857-0.354 1.559-0.768 0.075-0.042 0.172-0.026 0.247 0.020l2.482 1.469c0.092 0.053 0.222 0.053 0.308 0l9.699-5.765c0.092-0.055 0.151-0.165 0.151-0.278v-11.675c0-0.116-0.059-0.225-0.153-0.283l-9.695-5.917c-0.092-0.056-0.214-0.056-0.306 0l-9.689 5.919c-0.096 0.056-0.157 0.169-0.157 0.281v11.675c0 0.113 0.061 0.22 0.155 0.274l2.496 1.498c1.476 0.763 2.349-0.011 2.349-0.913v-11.481c0-0.166 0.128-0.295 0.287-0.295h1.426c0.157 0 0.287 0.13 0.287 0.295v11.481c0 2.035-1.21 3.203-3.075 3.203-0.572 0-1.025 0-2.284-0.642l-2.599-1.549c-0.643-0.384-1.042-1.103-1.042-1.872v-11.842c0-0.77 0.398-1.486 1.042-1.87l9.918-5.929c0.627-0.367 1.461-0.367 2.083 0l9.916 5.929c0.644 0.384 1.042 1.102 1.042 1.87v11.842c0 0.769-0.398 1.484-1.042 1.872l-9.916 5.923c-0.298 0.181-0.657 0.287-1.042 0.287-0.001 0-0.001 0-0.002 0h0l-0.004 0.001z"></path>
<path fill="#fff" style="fill: var(--color1, #fff)" d="M19.059 22c-4.038 0-5.25-1.976-5.25-3.704 0-0.164 0.128-0.296 0.285-0.296h1.283c0.143 0 0.264 0.106 0.285 0.251 0.193 1.35 1.047 1.947 3.395 1.947 2.087 0 2.943-0.647 2.943-1.793 0-0.662-0.216-1.151-3.463-1.481-2.714-0.278-4.393-0.898-4.393-3.143 0-2.071 1.687-3.281 4.515-3.281 2.883 0 4.779 0.875 4.948 3.177 0.006 0.084-0.023 0.164-0.078 0.228-0.054 0.060-0.13 0.095-0.21 0.095h-1.287c-0.134 0-0.252-0.098-0.279-0.232-0.275-1.060-1.061-1.463-3.098-1.463-2.28 0-2.547 0.797-2.547 1.413 0 0.748 0.314 0.965 3.393 1.386 3.048 0.416 4.496 1.007 4.496 3.222 0 2.236-1.8 3.674-4.942 3.674l0.002 0z"></path>
</symbol>
<symbol id="icon-angular" viewBox="0 0 32 32">
<title>angular</title>
<path fill="#fff" style="fill: var(--color1, #fff)" d="M13.348 16h5.303l-2.652-5.585z"></path>
<path fill="#fff" style="fill: var(--color1, #fff)" d="M15.999 2l-13.999 5 2.883 17 11.117 6 11.109-6 2.891-17-14.001-5zM21.5 22l-1.662-3.5h-7.677l-1.662 3.5h-2.5l8-17.5 8 17.5h-2.5z"></path>
</symbol>
<symbol id="icon-react" viewBox="0 0 32 32">
<title>react</title>
<path fill="#fff" style="fill: var(--color1, #fff)" d="M22.115 2.55c-0.499-0.017-1.021 0.070-1.545 0.24-1.048 0.339-2.145 1.002-3.272 1.917-0.484 0.402-0.919 0.795-1.336 1.207l0.002-0.002c-0.405-0.399-0.831-0.783-1.272-1.149l-0.033-0.027c-1.125-0.915-2.22-1.576-3.265-1.915s-2.085-0.349-2.939 0.144c-0.854 0.493-1.364 1.398-1.594 2.472s-0.205 2.354 0.025 3.786c0.080 0.498 0.195 1.020 0.325 1.551-0.488 0.148-0.962 0.303-1.402 0.475-1.326 0.518-2.424 1.138-3.222 1.875s-1.315 1.632-1.315 2.615c0 0.982 0.516 1.876 1.315 2.614s1.896 1.358 3.222 1.876c0.47 0.184 0.979 0.349 1.504 0.506-0.154 0.529-0.309 1.217-0.429 1.918l-0.017 0.122c-0.23 1.434-0.254 2.714-0.025 3.79 0.23 1.076 0.74 1.987 1.599 2.483s1.903 0.483 2.95 0.143c1.047-0.339 2.144-1 3.27-1.916 0.48-0.398 0.911-0.787 1.325-1.195l-0.002 0.002c0.445 0.433 0.89 0.842 1.329 1.199 1.125 0.915 2.221 1.576 3.266 1.915s2.084 0.349 2.938-0.143 1.364-1.398 1.594-2.473c0.229-1.074 0.204-2.354-0.026-3.786-0.137-0.824-0.293-1.514-0.483-2.19l0.035 0.145c0.543-0.16 1.068-0.33 1.551-0.518 1.326-0.518 2.424-1.139 3.222-1.876s1.315-1.631 1.315-2.614c0-0.983-0.516-1.878-1.315-2.615s-1.896-1.357-3.222-1.875c-0.333-0.136-0.806-0.3-1.287-0.446l-0.136-0.035c0.131-0.535 0.247-1.060 0.328-1.562 0.23-1.434 0.255-2.714 0.025-3.791s-0.742-1.986-1.6-2.481c-0.429-0.248-0.905-0.368-1.404-0.385zM22.056 3.853c0.314 0.008 0.58 0.083 0.809 0.214 0.457 0.264 0.794 0.778 0.975 1.623s0.174 1.987-0.038 3.311c-0.073 0.454-0.179 0.934-0.299 1.427-1.213-0.302-2.67-0.545-4.158-0.678l-0.114-0.008c-0.777-1.076-1.548-2.019-2.372-2.913l0.019 0.021c0.388-0.383 0.794-0.751 1.215-1.101l0.031-0.025c1.041-0.846 2.026-1.422 2.848-1.688 0.411-0.134 0.771-0.191 1.084-0.182zM9.911 3.856c0.315-0.008 0.675 0.049 1.088 0.183 0.824 0.267 1.811 0.843 2.852 1.69 0.443 0.367 0.841 0.727 1.222 1.103l-0.002-0.002c-0.81 0.88-1.587 1.832-2.306 2.828l-0.062 0.091c-1.523 0.14-2.952 0.376-4.255 0.692-0.093-0.345-0.197-0.825-0.281-1.311l-0.016-0.11c-0.212-1.325-0.218-2.468-0.037-3.315 0.18-0.848 0.521-1.364 0.982-1.631 0.235-0.134 0.515-0.215 0.814-0.218h0.001zM15.985 7.772c0.516 0.561 1.026 1.166 1.512 1.791l0.048 0.065c-0.459-0.021-1-0.033-1.543-0.034h-0.002c-0.533 0-1.057 0.013-1.574 0.035 0.534-0.691 1.045-1.296 1.579-1.879l-0.019 0.021zM16 10.886c0.87 0 1.718 0.036 2.544 0.096 0.502 0.707 1.048 1.555 1.558 2.425l0.093 0.171c0.356 0.596 0.778 1.382 1.172 2.186l0.095 0.216c-0.494 1.030-0.922 1.827-1.379 2.606l0.093-0.173c-0.497 0.857-0.922 1.529-1.369 2.185l0.082-0.127c-0.932 0.078-1.898 0.122-2.89 0.122-1.042-0.001-2.072-0.047-3.089-0.137l0.132 0.009c-0.357-0.518-0.775-1.18-1.173-1.855l-0.093-0.172c-0.361-0.604-0.788-1.4-1.186-2.212l-0.095-0.216c0.495-1.033 0.924-1.834 1.381-2.616l-0.093 0.173c0.601-1.037 1.144-1.879 1.72-2.697l-0.077 0.115c0.768-0.062 1.665-0.097 2.57-0.099h0.002zM20.192 11.142c1.055 0.132 2.045 0.315 2.967 0.534-0.354 1.154-0.7 2.082-1.091 2.987l0.072-0.187c-0.265-0.511-0.54-1.024-0.836-1.537-0.45-0.776-0.817-1.363-1.2-1.938l0.089 0.142zM11.74 11.153c-0.371 0.57-0.736 1.151-1.088 1.761-0.192 0.315-0.474 0.824-0.745 1.341l-0.104 0.216c-0.316-0.713-0.66-1.636-0.956-2.58l-0.055-0.204c0.792-0.201 1.792-0.388 2.81-0.52l0.138-0.015zM24.425 12.017c0.454 0.137 0.892 0.28 1.294 0.437 1.222 0.477 2.189 1.043 2.816 1.621s0.899 1.13 0.899 1.665-0.272 1.087-0.899 1.665c-0.627 0.579-1.594 1.144-2.816 1.622-0.447 0.174-0.938 0.333-1.448 0.482-0.464-1.412-0.932-2.57-1.463-3.691l0.082 0.192c0.525-1.087 1.046-2.41 1.475-3.774l0.060-0.22zM7.554 12.023c0.484 1.569 0.998 2.879 1.595 4.141l-0.080-0.188c-0.453 0.935-0.923 2.099-1.324 3.294l-0.065 0.224c-0.599-0.173-1.064-0.332-1.52-0.51l0.121 0.042c-1.222-0.478-2.189-1.043-2.816-1.622s-0.899-1.13-0.899-1.665 0.272-1.087 0.899-1.665c0.627-0.579 1.594-1.144 2.816-1.621 0.296-0.121 0.718-0.268 1.148-0.399l0.125-0.033zM16 12.8c-1.76 0-3.2 1.44-3.2 3.2s1.44 3.2 3.2 3.2 3.2-1.44 3.2-3.2-1.44-3.2-3.2-3.2zM16 14.080c1.068 0 1.92 0.852 1.92 1.92s-0.852 1.92-1.92 1.92-1.92-0.852-1.92-1.92 0.852-1.92 1.92-1.92zM22.157 17.512c0.335 0.794 0.627 1.572 0.872 2.321-0.631 0.156-1.463 0.313-2.306 0.431l-0.145 0.017c0.248-0.397 0.493-0.8 0.733-1.214 0.3-0.52 0.579-1.039 0.846-1.555zM9.819 17.514c0.269 0.52 0.549 1.041 0.851 1.564 0.237 0.41 0.477 0.808 0.723 1.2-0.986-0.136-1.815-0.293-2.63-0.487l0.186 0.037c0.244-0.747 0.536-1.523 0.87-2.315zM8.58 21.071c1.044 0.258 2.319 0.477 3.619 0.612l0.126 0.011c0.891 1.288 1.793 2.414 2.766 3.473l-0.021-0.023c-0.384 0.38-0.786 0.744-1.203 1.091l-0.031 0.025c-1.041 0.847-2.027 1.421-2.849 1.688s-1.436 0.231-1.892-0.032c-0.457-0.264-0.794-0.778-0.974-1.623s-0.175-1.986 0.038-3.31c0.096-0.601 0.241-1.244 0.42-1.911zM23.399 21.076c0.18 0.671 0.325 1.317 0.422 1.921 0.212 1.325 0.218 2.467 0.037 3.315s-0.52 1.364-0.981 1.631c-0.461 0.266-1.079 0.302-1.904 0.035s-1.811-0.845-2.852-1.692c-0.451-0.374-0.856-0.741-1.244-1.125l0.002 0.002c0.961-1.042 1.869-2.173 2.697-3.364l0.068-0.104c1.429-0.144 2.708-0.362 3.956-0.66l-0.2 0.040zM13.995 21.825c0.657 0.036 1.323 0.060 2.005 0.060 0.659 0 1.304-0.022 1.94-0.056-0.661 0.89-1.308 1.67-1.993 2.415l0.019-0.021c-0.664-0.724-1.31-1.505-1.915-2.318l-0.056-0.079z"></path>
</symbol>
<symbol id="icon-sass-bw" viewBox="0 0 43 32">
<title>sass-bw</title>
<path fill="#fff" style="fill: var(--color1, #fff)" d="M20.044 18.669c0.575 0.096 0.831 0.416 0.703 0.991-0.352 1.375-0.767 2.717-1.023 4.124-0.064 0.352-0.096 0.671-0.032 1.055 0.192-0.032 0.224-0.192 0.288-0.32 1.151-2.174 2.078-4.444 3.069-6.681 0.384-0.863 0.671-1.694 0.863-2.589 0.064-0.224 0.192-0.352 0.416-0.416 0.575-0.16 1.215-0.256 1.822-0.16 0.512 0.096 0.671 0.32 0.48 0.831-0.384 0.991-0.512 2.014-0.32 3.069 0.064 0.416 0.224 0.799 0.416 1.183 0.096 0.192 0.192 0.224 0.32 0.032 0.927-1.694 2.046-3.293 2.525-5.211 0.224-1.023 0.288-1.055 1.439-1.151 0.288 0 0.543-0.032 0.831 0 0.543 0.064 0.703 0.32 0.512 0.831-0.352 0.991-0.512 1.982-0.32 3.037 0.128 0.671 0.48 1.247 0.767 1.822 0.096 0.192 0.224 0.16 0.384 0.096 0.991-0.448 2.014-0.703 3.101-0.767 2.366-0.096 4.444 0.48 5.818 2.589 0.671 1.055 0.895 2.206 0.256 3.389-0.352 0.639-0.895 1.087-1.566 1.343-0.16 0.064-0.352 0.128-0.448-0.064s0.096-0.256 0.192-0.352c1.63-1.215 1.63-3.005 0-4.252-0.927-0.703-1.95-1.023-3.101-1.119-1.247-0.128-2.493-0.096-3.708 0.352-0.256 0.096-0.32 0.192-0.224 0.448 0.703 1.95-0.16 3.101-1.662 4.092-0.48 0.32-0.991 0.512-1.534 0.671-1.119 0.32-1.79-0.288-1.566-1.439 0.192-1.055 0.767-1.918 1.471-2.717 0.192-0.192 0.384-0.416 0.575-0.575 0.16-0.128 0.352-0.224 0.384-0.384 0-0.128-0.575-0.607-1.183-3.165-0.192 0.352-0.384 0.703-0.607 1.087-0.512 0.927-1.758 2.909-1.79 3.037s0 0.256 0.064 0.384c0.16 0.384 0.256 0.799 0.288 1.215 0.16 1.566-0.575 2.621-1.918 3.325-0.831 0.416-1.694 0.703-2.621 0.671-0.384 0-0.735-0.096-0.927-0.448-0.16-0.352-0.032-0.671 0.192-0.959 0.703-0.863 1.439-1.726 2.142-2.621 0.416-0.512 0.575-0.735 0.575-0.991 0-0.224-0.735-1.119-1.215-3.421-0.256 0.607-0.512 1.215-0.767 1.79-0.863 1.982-1.854 3.9-2.909 5.786-0.224 0.416-0.512 0.799-0.895 1.087-0.767 0.671-1.598 0.416-1.886-0.575-0.16-0.575-0.224-1.183-0.128-1.79 0 0 0.032-0.288 0-0.32-0.416 0.895-0.767 1.758-1.247 2.589-0.384 0.639-0.863 1.119-1.694 1.023-0.416-0.032-0.735-0.192-0.991-0.512-0.671-0.863-0.959-1.854-1.087-2.941-0.128-1.119 0.096-2.238 0.352-3.325 0.032-0.128 0.096-0.224 0.064-0.416-0.671 0.384-1.343 0.799-2.014 1.183-0.192 0.128-0.128 0.256-0.096 0.416 0.767 2.366 0.48 4.603-0.959 6.649-1.055 1.503-2.525 2.43-4.348 2.781-0.096 0.032-0.224 0.064-0.32 0.096h-1.502c-0.032-0.032-0.064-0.032-0.128-0.064-1.471-0.352-2.206-1.247-2.238-2.749-0.064-1.63 0.671-2.877 1.822-3.932 1.407-1.279 3.005-2.238 4.667-3.101 0.448-0.224 0.448-0.256 0.032-0.575l-2.398-1.726c-1.215-0.831-2.398-1.726-3.421-2.781-0.991-0.991-1.726-2.174-2.11-3.548-0.671-3.101 1.95-5.307 3.708-6.905 1.502-1.407 3.229-2.557 5.019-3.516 2.494-1.311 5.051-2.43 7.864-2.941 0.416-0.064 3.804-0.671 6.873 0.48 1.183 0.48 2.27 1.151 2.877 2.334 0.703 1.311 0.671 2.685 0.256 4.060-0.831 2.653-2.557 4.571-4.923 5.914-1.822 1.023-3.836 1.534-5.914 1.694-1.311 0.096-2.621 0.064-3.836-0.448-0.703-0.288-1.311-0.735-1.758-1.343-0.16-0.192-0.256-0.416-0.32-0.671-0.032-0.16-0.064-0.32 0.096-0.416s0.256 0.032 0.352 0.128c1.119 1.151 2.525 1.407 4.028 1.279 2.621-0.192 5.019-1.055 7.097-2.685 1.119-0.863 2.014-1.886 2.653-3.165 0.256-0.543 0.416-1.119 0.448-1.726 0.096-1.087-0.48-1.982-1.566-2.462-1.311-0.575-2.685-0.671-4.092-0.543-4.763 0.448-8.791 2.589-12.499 5.435-0.959 0.735-1.758 1.63-2.398 2.685-1.023 2.046-0.799 4.060 0.863 5.786 0.959 1.023 2.11 1.822 3.229 2.685 0.607 0.48 1.247 0.991 1.79 1.566 0.16 0.192 0.32 0.192 0.543 0.064 1.215-0.671 2.462-1.343 3.676-2.014 0.192-0.096 0.288-0.224 0.416-0.384 0.703-0.831 1.471-1.566 2.462-2.014 0.224-0.096 0.448-0.192 0.671-0.224 1.023-0.256 1.758 0.256 1.854 1.311v0.384s0 0.703-0.064 1.087c0.192-0.448 0.671-0.352 0.671-0.352zM9.686 24.264c0.032-0.32-0.032-0.735-0.128-1.151-0.032-0.16-0.096-0.256-0.288-0.128-1.471 0.895-2.941 1.79-4.092 3.101-0.639 0.735-1.055 1.566-0.959 2.589 0.032 0.512 0.352 0.831 0.863 0.895 0.224 0.032 0.416 0 0.607-0.032 2.238-0.512 3.996-2.781 3.996-5.275zM14.833 23.688c0 0.32 0 0.607 0.064 0.927s0.032 0.767 0.416 0.831c0.352 0.064 0.48-0.384 0.607-0.639 0.607-1.183 1.023-2.43 1.503-3.644 0.32-0.831 0.607-1.694 0.767-2.589 0.032-0.192 0.096-0.416-0.064-0.543-0.192-0.16-0.384-0.064-0.575 0.032-0.256 0.096-0.448 0.256-0.639 0.448-1.343 1.439-1.982 3.197-2.078 5.179zM31.904 21.93v-0.384c-0.032-0.224-0.096-0.32-0.32-0.128-0.703 0.671-1.119 1.471-1.375 2.398-0.032 0.064-0.064 0.16 0.032 0.224s0.192 0 0.256-0.032c0.895-0.352 1.407-1.119 1.407-2.078zM24.136 25.511c0.863-0.128 2.206-1.534 1.95-2.27-0.607 0.767-1.215 1.503-1.95 2.27z"></path>
</symbol>
<symbol id="icon-pencil" viewBox="0 0 32 32">
<title>pencil</title>
<path d="M27 0c2.761 0 5 2.239 5 5 0 1.126-0.372 2.164-1 3l-2 2-7-7 2-2c0.836-0.628 1.874-1 3-1zM2 23l-2 9 9-2 18.5-18.5-7-7-18.5 18.5zM22.362 11.362l-14 14-1.724-1.724 14-14 1.724 1.724z"></path>
</symbol>
<symbol id="icon-book" viewBox="0 0 32 32">
<title>book</title>
<path d="M28 4v26h-21c-1.657 0-3-1.343-3-3s1.343-3 3-3h19v-24h-20c-2.2 0-4 1.8-4 4v24c0 2.2 1.8 4 4 4h24v-28h-2z"></path>
<path d="M7.002 26v0c-0.001 0-0.001 0-0.002 0-0.552 0-1 0.448-1 1s0.448 1 1 1c0.001 0 0.001-0 0.002-0v0h18.997v-2h-18.997z"></path>
</symbol>
<symbol id="icon-envelop" viewBox="0 0 32 32">
<title>envelop</title>
<path d="M29 4h-26c-1.65 0-3 1.35-3 3v20c0 1.65 1.35 3 3 3h26c1.65 0 3-1.35 3-3v-20c0-1.65-1.35-3-3-3zM12.461 17.199l-8.461 6.59v-15.676l8.461 9.086zM5.512 8h20.976l-10.488 7.875-10.488-7.875zM12.79 17.553l3.21 3.447 3.21-3.447 6.58 8.447h-19.579l6.58-8.447zM19.539 17.199l8.461-9.086v15.676l-8.461-6.59z"></path>
</symbol>
<symbol id="icon-compass" viewBox="0 0 32 32">
<title>compass</title>
<path d="M17 32c-0.072 0-0.144-0.008-0.217-0.024-0.458-0.102-0.783-0.507-0.783-0.976v-15h-15c-0.469 0-0.875-0.326-0.976-0.783s0.129-0.925 0.553-1.123l30-14c0.381-0.178 0.833-0.098 1.13 0.199s0.377 0.749 0.199 1.13l-14 30c-0.167 0.358-0.524 0.577-0.906 0.577zM5.508 14h11.492c0.552 0 1 0.448 1 1v11.492l10.931-23.423-23.423 10.931z"></path>
</symbol>
<symbol id="icon-mobile" viewBox="0 0 32 32">
<title>mobile</title>
<path d="M23 0h-14c-1.65 0-3 1.35-3 3v26c0 1.65 1.35 3 3 3h14c1.65 0 3-1.35 3-3v-26c0-1.65-1.35-3-3-3zM12 1.5h8v1h-8v-1zM16 30c-1.105 0-2-0.895-2-2s0.895-2 2-2 2 0.895 2 2-0.895 2-2 2zM24 24h-16v-20h16v20z"></path>
</symbol>
<symbol id="icon-user" viewBox="0 0 32 32">
<title>user</title>
<path d="M18 22.082v-1.649c2.203-1.241 4-4.337 4-7.432 0-4.971 0-9-6-9s-6 4.029-6 9c0 3.096 1.797 6.191 4 7.432v1.649c-6.784 0.555-12 3.888-12 7.918h28c0-4.030-5.216-7.364-12-7.918z"></path>
</symbol>
<symbol id="icon-hammer" viewBox="0 0 32 32">
<title>hammer</title>
<path d="M31.562 25.905l-9.423-9.423c-0.583-0.583-1.538-0.583-2.121 0l-0.707 0.707-5.75-5.75 9.439-9.439h-10l-4.439 4.439-0.439-0.439h-2.121v2.121l0.439 0.439-6.439 6.439 5 5 6.439-6.439 5.75 5.75-0.707 0.707c-0.583 0.583-0.583 1.538 0 2.121l9.423 9.423c0.583 0.583 1.538 0.583 2.121 0l3.535-3.535c0.583-0.583 0.583-1.538 0-2.121z"></path>
</symbol>
<symbol id="icon-facebook" viewBox="0 0 32 32">
<title>facebook</title>
<path d="M19 6h5v-6h-5c-3.86 0-7 3.14-7 7v3h-4v6h4v16h6v-16h5l1-6h-6v-3c0-0.542 0.458-1 1-1z"></path>
</symbol>
<symbol id="icon-twitter" viewBox="0 0 32 32">
<title>twitter</title>
<path d="M32 7.075c-1.175 0.525-2.444 0.875-3.769 1.031 1.356-0.813 2.394-2.1 2.887-3.631-1.269 0.75-2.675 1.3-4.169 1.594-1.2-1.275-2.906-2.069-4.794-2.069-3.625 0-6.563 2.938-6.563 6.563 0 0.512 0.056 1.012 0.169 1.494-5.456-0.275-10.294-2.888-13.531-6.862-0.563 0.969-0.887 2.1-0.887 3.3 0 2.275 1.156 4.287 2.919 5.463-1.075-0.031-2.087-0.331-2.975-0.819 0 0.025 0 0.056 0 0.081 0 3.181 2.263 5.838 5.269 6.437-0.55 0.15-1.131 0.231-1.731 0.231-0.425 0-0.831-0.044-1.237-0.119 0.838 2.606 3.263 4.506 6.131 4.563-2.25 1.762-5.075 2.813-8.156 2.813-0.531 0-1.050-0.031-1.569-0.094 2.913 1.869 6.362 2.95 10.069 2.95 12.075 0 18.681-10.006 18.681-18.681 0-0.287-0.006-0.569-0.019-0.85 1.281-0.919 2.394-2.075 3.275-3.394z"></path>
</symbol>
<symbol id="icon-github" viewBox="0 0 32 32">
<title>github</title>
<path d="M16 0.395c-8.836 0-16 7.163-16 16 0 7.069 4.585 13.067 10.942 15.182 0.8 0.148 1.094-0.347 1.094-0.77 0-0.381-0.015-1.642-0.022-2.979-4.452 0.968-5.391-1.888-5.391-1.888-0.728-1.849-1.776-2.341-1.776-2.341-1.452-0.993 0.11-0.973 0.11-0.973 1.606 0.113 2.452 1.649 2.452 1.649 1.427 2.446 3.743 1.739 4.656 1.33 0.143-1.034 0.558-1.74 1.016-2.14-3.554-0.404-7.29-1.777-7.29-7.907 0-1.747 0.625-3.174 1.649-4.295-0.166-0.403-0.714-2.030 0.155-4.234 0 0 1.344-0.43 4.401 1.64 1.276-0.355 2.645-0.532 4.005-0.539 1.359 0.006 2.729 0.184 4.008 0.539 3.054-2.070 4.395-1.64 4.395-1.64 0.871 2.204 0.323 3.831 0.157 4.234 1.026 1.12 1.647 2.548 1.647 4.295 0 6.145-3.743 7.498-7.306 7.895 0.574 0.497 1.085 1.47 1.085 2.963 0 2.141-0.019 3.864-0.019 4.391 0 0.426 0.288 0.925 1.099 0.768 6.354-2.118 10.933-8.113 10.933-15.18 0-8.837-7.164-16-16-16z"></path>
</symbol>
</defs>
</svg>
